<svg id="Group_9086" data-name="Group 9086" xmlns="http://www.w3.org/2000/svg" width="20" height="20" viewBox="0 0 20 20">
  <path id="Path_27467" data-name="Path 27467" d="M0,0H20V20H0Z" fill="none"/>
  <path id="Path_27468" data-name="Path 27468" d="M16.222,18H3.778A.789.789,0,0,1,3,17.2V2.8A.789.789,0,0,1,3.778,2H16.222A.789.789,0,0,1,17,2.8V17.2A.789.789,0,0,1,16.222,18Zm-.778-1.6V3.6H4.556V16.4ZM6.889,6h6.222V7.6H6.889Zm0,3.2h6.222v1.6H6.889Zm0,3.2h3.889V14H6.889Z" transform="translate(0)"/>
</svg>
