<svg id="Group_9084" data-name="Group 9084" xmlns="http://www.w3.org/2000/svg" width="20" height="20" viewBox="0 0 20 20">
  <path id="Path_27463" data-name="Path 27463" d="M0,0H20V20H0Z" fill="none"/>
  <path id="Path_27464" data-name="Path 27464" d="M10,3.579A6.358,6.358,0,0,0,3.6,9.895H6a1.59,1.59,0,0,1,1.6,1.579v3.947A1.59,1.59,0,0,1,6,17H3.6A1.59,1.59,0,0,1,2,15.421V9.895A7.948,7.948,0,0,1,10,2a7.948,7.948,0,0,1,8,7.895v5.526A1.59,1.59,0,0,1,16.4,17H14a1.59,1.59,0,0,1-1.6-1.579V11.474A1.59,1.59,0,0,1,14,9.895h2.4A6.358,6.358,0,0,0,10,3.579ZM3.6,11.474v3.947H6V11.474Zm10.4,0v3.947h2.4V11.474Z"/>
</svg>
