<svg id="Group_9089" data-name="Group 9089" xmlns="http://www.w3.org/2000/svg" width="20" height="20" viewBox="0 0 20 20">
  <path id="Path_27473" data-name="Path 27473" d="M0,0H20V20H0Z" fill="none"/>
  <path id="Path_27474" data-name="Path 27474" d="M5.01,14.128H16.4V4.59H3.6V15.229Zm.554,1.59L2,18.5V3.795A.8.8,0,0,1,2.8,3H17.2a.8.8,0,0,1,.8.795V14.923a.8.8,0,0,1-.8.795ZM9.2,11.744h1.6v1.59H9.2ZM7.254,7.621A2.8,2.8,0,1,1,10,10.949H9.2V9.359H10A1.193,1.193,0,1,0,8.823,7.933l-1.57-.312Z"/>
</svg>
