<svg id="Group_9087" data-name="Group 9087" xmlns="http://www.w3.org/2000/svg" width="20" height="20" viewBox="0 0 20 20">
  <path id="Path_27469" data-name="Path 27469" d="M0,0H20V20H0Z" fill="none"/>
  <path id="Path_27470" data-name="Path 27470" d="M8.04,9.6a1.8,1.8,0,1,1,1.8-1.8A1.8,1.8,0,0,1,8.04,9.6Zm.36,6.6V13.52a1.942,1.942,0,0,1,.323-1.07A5.178,5.178,0,0,0,4.7,13.583,6.41,6.41,0,0,0,8.4,16.2Zm-4.438-4.07a6.812,6.812,0,0,1,6.411-.9A6.743,6.743,0,0,1,12.8,10.8a5.9,5.9,0,0,1,3.365.925,6.4,6.4,0,1,0-12.2.4ZM15.5,13.269a3.7,3.7,0,0,0-2.7-.869c-1.6,0-2.8.638-2.8,1.12V16.4a6.4,6.4,0,0,0,5.5-3.131ZM10,18a8,8,0,1,1,8-8A8,8,0,0,1,10,18Zm2.8-7.6a1.6,1.6,0,1,1,1.6-1.6A1.6,1.6,0,0,1,12.8,10.4Z"/>
</svg>
